<svg width="182" height="64" viewBox="0 0 182 64" fill="none" xmlns="http://www.w3.org/2000/svg">
<rect width="182" height="64" fill="url(#paint0_linear_1_907)"/>
<path opacity="0.87" d="M39.84 35.552H35.072L34.208 38H32.256L36.416 26.88H38.512L42.656 38H40.704L39.84 35.552ZM39.328 34.144L37.456 28.864L35.584 34.144H39.328ZM49.0663 29.072C49.8343 29.072 50.5169 29.2533 51.1143 29.616C51.7223 29.9787 52.1969 30.5013 52.5383 31.184C52.8796 31.8667 53.0503 32.6667 53.0503 33.584C53.0503 34.512 52.8796 35.3173 52.5383 36C52.1969 36.6827 51.7223 37.2053 51.1143 37.568C50.5169 37.9307 49.8343 38.112 49.0663 38.112C48.2663 38.112 47.5836 37.9147 47.0182 37.52C46.4529 37.1253 46.0583 36.6027 45.8343 35.952V42.192H44.0103V29.184H45.8343V31.232C46.0583 30.5813 46.4529 30.0587 47.0182 29.664C47.5836 29.2693 48.2663 29.072 49.0663 29.072ZM48.5063 30.672C47.9943 30.672 47.5356 30.7947 47.1302 31.04C46.7249 31.2747 46.4049 31.616 46.1703 32.064C45.9356 32.5013 45.8183 33.008 45.8183 33.584C45.8183 34.1707 45.9356 34.6827 46.1703 35.12C46.4049 35.5573 46.7249 35.8987 47.1302 36.144C47.5356 36.3787 47.9943 36.496 48.5063 36.496C49.3169 36.496 49.9676 36.24 50.4583 35.728C50.9489 35.2053 51.1943 34.4907 51.1943 33.584C51.1943 32.688 50.9489 31.9787 50.4583 31.456C49.9676 30.9333 49.3169 30.672 48.5063 30.672ZM59.8631 29.072C60.6311 29.072 61.3138 29.2533 61.9111 29.616C62.5191 29.9787 62.9938 30.5013 63.3351 31.184C63.6765 31.8667 63.8471 32.6667 63.8471 33.584C63.8471 34.512 63.6765 35.3173 63.3351 36C62.9938 36.6827 62.5191 37.2053 61.9111 37.568C61.3138 37.9307 60.6311 38.112 59.8631 38.112C59.0631 38.112 58.3805 37.9147 57.8151 37.52C57.2498 37.1253 56.8551 36.6027 56.6311 35.952V42.192H54.8071V29.184H56.6311V31.232C56.8551 30.5813 57.2498 30.0587 57.8151 29.664C58.3805 29.2693 59.0631 29.072 59.8631 29.072ZM59.3031 30.672C58.7911 30.672 58.3325 30.7947 57.9271 31.04C57.5218 31.2747 57.2018 31.616 56.9671 32.064C56.7325 32.5013 56.6151 33.008 56.6151 33.584C56.6151 34.1707 56.7325 34.6827 56.9671 35.12C57.2018 35.5573 57.5218 35.8987 57.9271 36.144C58.3325 36.3787 58.7911 36.496 59.3031 36.496C60.1138 36.496 60.7645 36.24 61.2551 35.728C61.7458 35.2053 61.9911 34.4907 61.9911 33.584C61.9911 32.688 61.7458 31.9787 61.2551 31.456C60.7645 30.9333 60.1138 30.672 59.3031 30.672ZM67.428 26.16V38H65.604V26.16H67.428ZM70.6753 29.184L73.3153 35.664L75.7633 29.184H77.7953L72.4673 42.192H70.4353L72.3393 37.792L68.6273 29.184H70.6753ZM91.8806 38H90.0566L84.5686 29.664V38H82.7446V26.72H84.5686L90.0566 35.088V26.72H91.8806V38ZM98.1204 29.072C98.9737 29.072 99.7417 29.2533 100.424 29.616C101.107 29.9787 101.64 30.5013 102.024 31.184C102.408 31.8667 102.6 32.6667 102.6 33.584C102.6 34.512 102.408 35.3173 102.024 36C101.64 36.6827 101.107 37.2053 100.424 37.568C99.7417 37.9307 98.9737 38.112 98.1204 38.112C97.267 38.112 96.499 37.9307 95.8164 37.568C95.1444 37.2053 94.611 36.6827 94.2164 36C93.8324 35.3067 93.6404 34.5013 93.6404 33.584C93.6404 32.6667 93.8324 31.8667 94.2164 31.184C94.611 30.5013 95.1444 29.9787 95.8164 29.616C96.499 29.2533 97.267 29.072 98.1204 29.072ZM98.1204 30.656C97.651 30.656 97.219 30.7627 96.8244 30.976C96.4297 31.1893 96.1097 31.52 95.8644 31.968C95.6297 32.4053 95.5124 32.944 95.5124 33.584C95.5124 34.2347 95.6297 34.7787 95.8644 35.216C96.1097 35.6533 96.4297 35.9787 96.8244 36.192C97.219 36.4053 97.651 36.512 98.1204 36.512C98.5897 36.512 99.0217 36.4053 99.4164 36.192C99.811 35.9787 100.126 35.6533 100.36 35.216C100.606 34.7787 100.728 34.2347 100.728 33.584C100.728 32.944 100.606 32.4053 100.36 31.968C100.126 31.52 99.811 31.1893 99.4164 30.976C99.0217 30.7627 98.5897 30.656 98.1204 30.656ZM116.706 29.184L114.258 38H112.242L110.066 31.184L107.858 38H105.858L103.41 29.184H105.25L106.93 36.32L109.138 29.184H111.058L113.298 36.32L114.978 29.184H116.706Z" fill="white"/>
<path d="M150.707 32.7071C151.098 32.3166 151.098 31.6834 150.707 31.2929L144.343 24.9289C143.953 24.5384 143.319 24.5384 142.929 24.9289C142.538 25.3195 142.538 25.9526 142.929 26.3431L148.586 32L142.929 37.6569C142.538 38.0474 142.538 38.6805 142.929 39.0711C143.319 39.4616 143.953 39.4616 144.343 39.0711L150.707 32.7071ZM130 33L150 33V31L130 31V33Z" fill="white"/>
<path d="M0 11V0H29V11H0Z" fill="#666DFF"/>
<path d="M0 27V19H8V27H0Z" fill="#666DFF"/>
<path d="M0 19V0H19V19H0Z" fill="#FFA155"/>
<path d="M8 11V0H19V11H8Z" fill="#FFD3AF"/>
<defs>
<linearGradient id="paint0_linear_1_907" x1="91" y1="0" x2="91" y2="64" gradientUnits="userSpaceOnUse">
<stop stop-color="#444CFC"/>
<stop offset="1" stop-color="#444CFC"/>
</linearGradient>
</defs>
</svg>
