<svg width="219" height="64" viewBox="0 0 219 64" fill="none" xmlns="http://www.w3.org/2000/svg">
<rect width="219" height="64" fill="#444CFC"/>
<path opacity="0.87" d="M39.04 38L36.224 33.488H34.928V38H33.104V26.704H37.088C38.3787 26.704 39.3547 27.0187 40.016 27.648C40.688 28.2773 41.024 29.1093 41.024 30.144C41.024 31.0293 40.7733 31.7547 40.272 32.32C39.7813 32.8853 39.0667 33.248 38.128 33.408L41.088 38H39.04ZM34.928 32.192H36.944C38.416 32.192 39.152 31.5413 39.152 30.24C39.152 29.6213 38.9707 29.1413 38.608 28.8C38.256 28.448 37.7013 28.272 36.944 28.272H34.928V32.192ZM50.8585 33.168C50.8585 33.4667 50.8372 33.728 50.7945 33.952H44.0105C44.0425 34.8587 44.2932 35.5307 44.7625 35.968C45.2318 36.4053 45.8132 36.624 46.5065 36.624C47.1145 36.624 47.6265 36.4693 48.0425 36.16C48.4692 35.8507 48.7305 35.44 48.8265 34.928H50.7785C50.6612 35.5467 50.4158 36.096 50.0425 36.576C49.6692 37.056 49.1838 37.4347 48.5865 37.712C47.9892 37.9787 47.3225 38.112 46.5865 38.112C45.7332 38.112 44.9758 37.9307 44.3145 37.568C43.6638 37.2053 43.1518 36.6827 42.7785 36C42.4052 35.3173 42.2185 34.512 42.2185 33.584C42.2185 32.6667 42.4052 31.8667 42.7785 31.184C43.1518 30.5013 43.6638 29.9787 44.3145 29.616C44.9758 29.2533 45.7332 29.072 46.5865 29.072C47.4505 29.072 48.2025 29.2533 48.8425 29.616C49.4932 29.968 49.9892 30.4587 50.3305 31.088C50.6825 31.7067 50.8585 32.4 50.8585 33.168ZM49.0185 33.12C49.0398 32.544 48.9385 32.064 48.7145 31.68C48.5012 31.2853 48.2025 30.9973 47.8185 30.816C47.4452 30.624 47.0345 30.528 46.5865 30.528C45.8718 30.528 45.2745 30.7467 44.7945 31.184C44.3145 31.6213 44.0532 32.2667 44.0105 33.12H49.0185ZM56.2836 29.088C57.0303 29.088 57.6703 29.2587 58.2036 29.6C58.737 29.9413 59.137 30.416 59.4036 31.024V29.184H61.2276V42.192H59.4036V36.064C59.1263 36.704 58.721 37.2053 58.1876 37.568C57.6543 37.9307 57.0196 38.112 56.2836 38.112C55.5156 38.112 54.817 37.9253 54.1876 37.552C53.5583 37.1787 53.0623 36.656 52.6996 35.984C52.3476 35.3013 52.1716 34.512 52.1716 33.616C52.1716 32.72 52.3476 31.9307 52.6996 31.248C53.0623 30.5653 53.5583 30.0373 54.1876 29.664C54.817 29.28 55.5156 29.088 56.2836 29.088ZM56.7156 30.688C55.937 30.688 55.297 30.9493 54.7956 31.472C54.2943 31.984 54.0436 32.6987 54.0436 33.616C54.0436 34.5333 54.289 35.2427 54.7796 35.744C55.281 36.2453 55.9263 36.496 56.7156 36.496C57.2063 36.496 57.6543 36.384 58.0596 36.16C58.465 35.9253 58.7903 35.5893 59.0356 35.152C59.281 34.7147 59.4036 34.192 59.4036 33.584C59.4036 32.9867 59.281 32.4693 59.0356 32.032C58.7903 31.5947 58.465 31.264 58.0596 31.04C57.6543 30.8053 57.2063 30.688 56.7156 30.688ZM71.5445 29.184V38H69.7045V36.08C69.4805 36.7307 69.0912 37.2373 68.5365 37.6C67.9818 37.952 67.3365 38.128 66.6005 38.128C65.5765 38.128 64.7552 37.7973 64.1365 37.136C63.5178 36.4747 63.2085 35.5307 63.2085 34.304V29.184H65.0325V34.112C65.0325 34.912 65.2352 35.5307 65.6405 35.968C66.0458 36.3947 66.6005 36.608 67.3045 36.608C68.0298 36.608 68.6112 36.3733 69.0485 35.904C69.4858 35.4347 69.7045 34.752 69.7045 33.856V29.184H71.5445ZM81.921 33.168C81.921 33.4667 81.8997 33.728 81.857 33.952H75.073C75.105 34.8587 75.3557 35.5307 75.825 35.968C76.2943 36.4053 76.8757 36.624 77.569 36.624C78.177 36.624 78.689 36.4693 79.105 36.16C79.5317 35.8507 79.793 35.44 79.889 34.928H81.841C81.7237 35.5467 81.4783 36.096 81.105 36.576C80.7317 37.056 80.2463 37.4347 79.649 37.712C79.0517 37.9787 78.385 38.112 77.649 38.112C76.7957 38.112 76.0383 37.9307 75.377 37.568C74.7263 37.2053 74.2143 36.6827 73.841 36C73.4677 35.3173 73.281 34.512 73.281 33.584C73.281 32.6667 73.4677 31.8667 73.841 31.184C74.2143 30.5013 74.7263 29.9787 75.377 29.616C76.0383 29.2533 76.7957 29.072 77.649 29.072C78.513 29.072 79.265 29.2533 79.905 29.616C80.5557 29.968 81.0517 30.4587 81.393 31.088C81.745 31.7067 81.921 32.4 81.921 33.168ZM80.081 33.12C80.1023 32.544 80.001 32.064 79.777 31.68C79.5637 31.2853 79.265 30.9973 78.881 30.816C78.5077 30.624 78.097 30.528 77.649 30.528C76.9343 30.528 76.337 30.7467 75.857 31.184C75.377 31.6213 75.1157 32.2667 75.073 33.12H80.081ZM86.5781 29.072C87.6128 29.072 88.4395 29.3387 89.0581 29.872C89.6875 30.3947 90.0715 31.0987 90.2101 31.984H88.4821C88.4075 31.504 88.1995 31.12 87.8581 30.832C87.5275 30.5333 87.0848 30.384 86.5301 30.384C86.0715 30.384 85.7141 30.496 85.4581 30.72C85.2128 30.9333 85.0901 31.2267 85.0901 31.6C85.0901 31.8773 85.1808 32.1013 85.3621 32.272C85.5435 32.4427 85.7675 32.576 86.0341 32.672C86.3115 32.768 86.7008 32.8747 87.2021 32.992C87.8635 33.1413 88.3968 33.296 88.8021 33.456C89.2181 33.616 89.5701 33.872 89.8581 34.224C90.1568 34.5653 90.3061 35.0347 90.3061 35.632C90.3061 36.368 90.0235 36.9653 89.4581 37.424C88.9035 37.8827 88.1515 38.112 87.2021 38.112C86.1035 38.112 85.2128 37.856 84.5301 37.344C83.8581 36.832 83.4528 36.1173 83.3141 35.2H85.0901C85.1435 35.68 85.3568 36.0693 85.7301 36.368C86.1035 36.6667 86.5941 36.816 87.2021 36.816C87.6395 36.816 87.9808 36.704 88.2261 36.48C88.4821 36.2453 88.6101 35.952 88.6101 35.6C88.6101 35.2907 88.5141 35.0453 88.3221 34.864C88.1301 34.6827 87.8901 34.544 87.6021 34.448C87.3141 34.3413 86.9195 34.2347 86.4181 34.128C85.7781 33.9787 85.2555 33.8293 84.8501 33.68C84.4555 33.5307 84.1141 33.2907 83.8261 32.96C83.5488 32.6187 83.4101 32.16 83.4101 31.584C83.4101 30.8373 83.6875 30.2347 84.2421 29.776C84.8075 29.3067 85.5861 29.072 86.5781 29.072ZM96.5673 36.416V38H95.4473C94.5086 38 93.7939 37.776 93.3033 37.328C92.8233 36.8693 92.5833 36.112 92.5833 35.056V30.736H91.3193V29.184H92.5833V26.992H94.4233V29.184H96.5513V30.736H94.4233V35.088C94.4233 35.5893 94.5139 35.936 94.6953 36.128C94.8873 36.32 95.2179 36.416 95.6873 36.416H96.5673ZM110.81 40.128L108.794 37.936C108.303 38.064 107.791 38.128 107.258 38.128C106.202 38.128 105.247 37.8827 104.394 37.392C103.551 36.8907 102.885 36.2027 102.394 35.328C101.903 34.4427 101.658 33.4453 101.658 32.336C101.658 31.2267 101.903 30.2347 102.394 29.36C102.885 28.4747 103.551 27.7867 104.394 27.296C105.247 26.8053 106.202 26.56 107.258 26.56C108.303 26.56 109.247 26.8053 110.09 27.296C110.943 27.7867 111.61 28.4747 112.09 29.36C112.581 30.2347 112.826 31.2267 112.826 32.336C112.826 33.4027 112.597 34.368 112.138 35.232C111.679 36.096 111.055 36.7787 110.266 37.28L113.066 40.128H110.81ZM103.53 32.336C103.53 33.1573 103.685 33.8773 103.994 34.496C104.314 35.1147 104.757 35.5893 105.322 35.92C105.887 36.2507 106.533 36.416 107.258 36.416C107.973 36.416 108.607 36.2507 109.162 35.92C109.727 35.5893 110.165 35.1147 110.474 34.496C110.794 33.8773 110.954 33.1573 110.954 32.336C110.954 31.5147 110.794 30.7947 110.474 30.176C110.165 29.5573 109.727 29.0827 109.162 28.752C108.607 28.4213 107.973 28.256 107.258 28.256C106.533 28.256 105.887 28.4213 105.322 28.752C104.757 29.0827 104.314 29.5573 103.994 30.176C103.685 30.7947 103.53 31.5147 103.53 32.336ZM122.795 29.184V38H120.955V36.08C120.731 36.7307 120.341 37.2373 119.787 37.6C119.232 37.952 118.587 38.128 117.851 38.128C116.827 38.128 116.005 37.7973 115.387 37.136C114.768 36.4747 114.459 35.5307 114.459 34.304V29.184H116.283V34.112C116.283 34.912 116.485 35.5307 116.891 35.968C117.296 36.3947 117.851 36.608 118.555 36.608C119.28 36.608 119.861 36.3733 120.299 35.904C120.736 35.4347 120.955 34.752 120.955 33.856V29.184H122.795ZM129.011 29.072C129.864 29.072 130.632 29.2533 131.315 29.616C131.998 29.9787 132.531 30.5013 132.915 31.184C133.299 31.8667 133.491 32.6667 133.491 33.584C133.491 34.512 133.299 35.3173 132.915 36C132.531 36.6827 131.998 37.2053 131.315 37.568C130.632 37.9307 129.864 38.112 129.011 38.112C128.158 38.112 127.39 37.9307 126.707 37.568C126.035 37.2053 125.502 36.6827 125.107 36C124.723 35.3067 124.531 34.5013 124.531 33.584C124.531 32.6667 124.723 31.8667 125.107 31.184C125.502 30.5013 126.035 29.9787 126.707 29.616C127.39 29.2533 128.158 29.072 129.011 29.072ZM129.011 30.656C128.542 30.656 128.11 30.7627 127.715 30.976C127.32 31.1893 127 31.52 126.755 31.968C126.52 32.4053 126.403 32.944 126.403 33.584C126.403 34.2347 126.52 34.7787 126.755 35.216C127 35.6533 127.32 35.9787 127.715 36.192C128.11 36.4053 128.542 36.512 129.011 36.512C129.48 36.512 129.912 36.4053 130.307 36.192C130.702 35.9787 131.016 35.6533 131.251 35.216C131.496 34.7787 131.619 34.2347 131.619 33.584C131.619 32.944 131.496 32.4053 131.251 31.968C131.016 31.52 130.702 31.1893 130.307 30.976C129.912 30.7627 129.48 30.656 129.011 30.656ZM139.677 36.416V38H138.557C137.618 38 136.903 37.776 136.413 37.328C135.933 36.8693 135.693 36.112 135.693 35.056V30.736H134.429V29.184H135.693V26.992H137.533V29.184H139.661V30.736H137.533V35.088C137.533 35.5893 137.623 35.936 137.805 36.128C137.997 36.32 138.327 36.416 138.797 36.416H139.677ZM149.577 33.168C149.577 33.4667 149.556 33.728 149.513 33.952H142.729C142.761 34.8587 143.012 35.5307 143.481 35.968C143.951 36.4053 144.532 36.624 145.225 36.624C145.833 36.624 146.345 36.4693 146.761 36.16C147.188 35.8507 147.449 35.44 147.545 34.928H149.497C149.38 35.5467 149.135 36.096 148.761 36.576C148.388 37.056 147.903 37.4347 147.305 37.712C146.708 37.9787 146.041 38.112 145.305 38.112C144.452 38.112 143.695 37.9307 143.033 37.568C142.383 37.2053 141.871 36.6827 141.497 36C141.124 35.3173 140.937 34.512 140.937 33.584C140.937 32.6667 141.124 31.8667 141.497 31.184C141.871 30.5013 142.383 29.9787 143.033 29.616C143.695 29.2533 144.452 29.072 145.305 29.072C146.169 29.072 146.921 29.2533 147.561 29.616C148.212 29.968 148.708 30.4587 149.049 31.088C149.401 31.7067 149.577 32.4 149.577 33.168ZM147.737 33.12C147.759 32.544 147.657 32.064 147.433 31.68C147.22 31.2853 146.921 30.9973 146.537 30.816C146.164 30.624 145.753 30.528 145.305 30.528C144.591 30.528 143.993 30.7467 143.513 31.184C143.033 31.6213 142.772 32.2667 142.729 33.12H147.737Z" fill="white"/>
<path d="M187.354 32.3536C187.549 32.1583 187.549 31.8417 187.354 31.6464L184.172 28.4645C183.976 28.2692 183.66 28.2692 183.464 28.4645C183.269 28.6597 183.269 28.9763 183.464 29.1716L186.293 32L183.464 34.8284C183.269 35.0237 183.269 35.3403 183.464 35.5355C183.66 35.7308 183.976 35.7308 184.172 35.5355L187.354 32.3536ZM167 32.5L187 32.5V31.5L167 31.5V32.5Z" fill="white"/>
<path d="M0 11.4074V0H28V11.4074H0Z" fill="#666DFF"/>
<path d="M0 27.9999V19.7036H7.72414V27.9999H0Z" fill="#666DFF"/>
<path d="M0 19.7037V0H18.3448V19.7037H0Z" fill="#FFA155"/>
<path d="M7.72461 11.4074V0H18.3453V11.4074H7.72461Z" fill="#FFD3AF"/>
</svg>
