<svg width="213" height="64" viewBox="0 0 213 64" fill="none" xmlns="http://www.w3.org/2000/svg">
<rect width="213" height="64" fill="url(#paint0_linear_1_230)"/>
<path opacity="0.87" d="M40.528 34.992C40.528 35.5467 40.3947 36.064 40.128 36.544C39.8613 37.0133 39.456 37.392 38.912 37.68C38.368 37.968 37.7013 38.112 36.912 38.112C36.144 38.112 35.456 37.9787 34.848 37.712C34.24 37.4347 33.7547 37.0507 33.392 36.56C33.0293 36.0693 32.8213 35.504 32.768 34.864H34.72C34.7733 35.3547 34.9813 35.776 35.344 36.128C35.7173 36.48 36.2133 36.656 36.832 36.656C37.3867 36.656 37.8133 36.5067 38.112 36.208C38.4213 35.9093 38.576 35.5253 38.576 35.056C38.576 34.6507 38.464 34.32 38.24 34.064C38.016 33.7973 37.7387 33.5893 37.408 33.44C37.0773 33.2907 36.624 33.12 36.048 32.928C35.344 32.704 34.768 32.48 34.32 32.256C33.8827 32.032 33.5093 31.7067 33.2 31.28C32.8907 30.8533 32.736 30.2933 32.736 29.6C32.736 28.992 32.8853 28.4587 33.184 28C33.4827 27.5413 33.9093 27.1893 34.464 26.944C35.0187 26.688 35.6587 26.56 36.384 26.56C37.536 26.56 38.448 26.8373 39.12 27.392C39.8027 27.9467 40.192 28.672 40.288 29.568H38.32C38.2453 29.1413 38.0427 28.7787 37.712 28.48C37.392 28.1707 36.9493 28.016 36.384 28.016C35.872 28.016 35.4613 28.1493 35.152 28.416C34.8427 28.672 34.688 29.0453 34.688 29.536C34.688 29.92 34.7947 30.24 35.008 30.496C35.2213 30.7413 35.488 30.9387 35.808 31.088C36.1387 31.2267 36.5867 31.392 37.152 31.584C37.8667 31.808 38.448 32.0373 38.896 32.272C39.3547 32.496 39.7387 32.8267 40.048 33.264C40.368 33.7013 40.528 34.2773 40.528 34.992ZM50.546 33.168C50.546 33.4667 50.5247 33.728 50.482 33.952H43.698C43.73 34.8587 43.9807 35.5307 44.45 35.968C44.9193 36.4053 45.5007 36.624 46.194 36.624C46.802 36.624 47.314 36.4693 47.73 36.16C48.1567 35.8507 48.418 35.44 48.514 34.928H50.466C50.3487 35.5467 50.1033 36.096 49.73 36.576C49.3567 37.056 48.8713 37.4347 48.274 37.712C47.6767 37.9787 47.01 38.112 46.274 38.112C45.4207 38.112 44.6633 37.9307 44.002 37.568C43.3513 37.2053 42.8393 36.6827 42.466 36C42.0927 35.3173 41.906 34.512 41.906 33.584C41.906 32.6667 42.0927 31.8667 42.466 31.184C42.8393 30.5013 43.3513 29.9787 44.002 29.616C44.6633 29.2533 45.4207 29.072 46.274 29.072C47.138 29.072 47.89 29.2533 48.53 29.616C49.1807 29.968 49.6767 30.4587 50.018 31.088C50.37 31.7067 50.546 32.4 50.546 33.168ZM48.706 33.12C48.7273 32.544 48.626 32.064 48.402 31.68C48.1887 31.2853 47.89 30.9973 47.506 30.816C47.1327 30.624 46.722 30.528 46.274 30.528C45.5593 30.528 44.962 30.7467 44.482 31.184C44.002 31.6213 43.7407 32.2667 43.698 33.12H48.706ZM57.2351 29.04C58.2591 29.04 59.0805 29.3707 59.6991 30.032C60.3178 30.6933 60.6271 31.6373 60.6271 32.864V38H58.8031V33.056C58.8031 32.2667 58.6005 31.6587 58.1951 31.232C57.7898 30.7947 57.2351 30.576 56.5311 30.576C55.8058 30.576 55.2245 30.8107 54.7871 31.28C54.3498 31.7387 54.1311 32.416 54.1311 33.312V38H52.3071V29.184H54.1311V31.12C54.3658 30.4587 54.7605 29.9467 55.3151 29.584C55.8698 29.2213 56.5098 29.04 57.2351 29.04ZM66.2963 29.072C67.0963 29.072 67.7789 29.2693 68.3443 29.664C68.9096 30.0587 69.3043 30.5813 69.5283 31.232V26.16H71.3683V38H69.5283V35.952C69.3043 36.6027 68.9096 37.1253 68.3443 37.52C67.7789 37.9147 67.0963 38.112 66.2963 38.112C65.5283 38.112 64.8403 37.9307 64.2323 37.568C63.6349 37.2053 63.1656 36.6827 62.8243 36C62.4829 35.3173 62.3123 34.512 62.3123 33.584C62.3123 32.6667 62.4829 31.8667 62.8243 31.184C63.1656 30.5013 63.6349 29.9787 64.2323 29.616C64.8403 29.2533 65.5283 29.072 66.2963 29.072ZM66.8563 30.672C66.0456 30.672 65.3949 30.9333 64.9043 31.456C64.4243 31.968 64.1843 32.6773 64.1843 33.584C64.1843 34.4907 64.4243 35.2053 64.9043 35.728C65.3949 36.24 66.0456 36.496 66.8563 36.496C67.3683 36.496 67.8269 36.3787 68.2323 36.144C68.6376 35.8987 68.9576 35.5573 69.1923 35.12C69.4269 34.6827 69.5443 34.1707 69.5443 33.584C69.5443 33.008 69.4269 32.5013 69.1923 32.064C68.9576 31.616 68.6376 31.2747 68.2323 31.04C67.8269 30.7947 67.3683 30.672 66.8563 30.672ZM89.0191 26.88V38H87.1791V29.664L83.9631 38H82.3631L79.1311 29.664V38H77.3071V26.88H79.5151L83.1951 35.76L86.8111 26.88H89.0191ZM99.4054 33.168C99.4054 33.4667 99.384 33.728 99.3414 33.952H92.5574C92.5894 34.8587 92.84 35.5307 93.3094 35.968C93.7787 36.4053 94.36 36.624 95.0534 36.624C95.6614 36.624 96.1734 36.4693 96.5894 36.16C97.016 35.8507 97.2774 35.44 97.3734 34.928H99.3254C99.208 35.5467 98.9627 36.096 98.5894 36.576C98.216 37.056 97.7307 37.4347 97.1334 37.712C96.536 37.9787 95.8694 38.112 95.1334 38.112C94.28 38.112 93.5227 37.9307 92.8614 37.568C92.2107 37.2053 91.6987 36.6827 91.3254 36C90.952 35.3173 90.7654 34.512 90.7654 33.584C90.7654 32.6667 90.952 31.8667 91.3254 31.184C91.6987 30.5013 92.2107 29.9787 92.8614 29.616C93.5227 29.2533 94.28 29.072 95.1334 29.072C95.9974 29.072 96.7494 29.2533 97.3894 29.616C98.04 29.968 98.536 30.4587 98.8774 31.088C99.2294 31.7067 99.4054 32.4 99.4054 33.168ZM97.5654 33.12C97.5867 32.544 97.4854 32.064 97.2614 31.68C97.048 31.2853 96.7494 30.9973 96.3654 30.816C95.992 30.624 95.5814 30.528 95.1334 30.528C94.4187 30.528 93.8214 30.7467 93.3414 31.184C92.8614 31.6213 92.6 32.2667 92.5574 33.12H97.5654ZM104.062 29.072C105.097 29.072 105.924 29.3387 106.543 29.872C107.172 30.3947 107.556 31.0987 107.695 31.984H105.967C105.892 31.504 105.684 31.12 105.343 30.832C105.012 30.5333 104.569 30.384 104.015 30.384C103.556 30.384 103.199 30.496 102.943 30.72C102.697 30.9333 102.575 31.2267 102.575 31.6C102.575 31.8773 102.665 32.1013 102.847 32.272C103.028 32.4427 103.252 32.576 103.519 32.672C103.796 32.768 104.185 32.8747 104.687 32.992C105.348 33.1413 105.881 33.296 106.287 33.456C106.703 33.616 107.055 33.872 107.343 34.224C107.641 34.5653 107.791 35.0347 107.791 35.632C107.791 36.368 107.508 36.9653 106.943 37.424C106.388 37.8827 105.636 38.112 104.687 38.112C103.588 38.112 102.697 37.856 102.015 37.344C101.343 36.832 100.937 36.1173 100.799 35.2H102.575C102.628 35.68 102.841 36.0693 103.215 36.368C103.588 36.6667 104.079 36.816 104.687 36.816C105.124 36.816 105.465 36.704 105.711 36.48C105.967 36.2453 106.095 35.952 106.095 35.6C106.095 35.2907 105.999 35.0453 105.807 34.864C105.615 34.6827 105.375 34.544 105.087 34.448C104.799 34.3413 104.404 34.2347 103.903 34.128C103.263 33.9787 102.74 33.8293 102.335 33.68C101.94 33.5307 101.599 33.2907 101.311 32.96C101.033 32.6187 100.895 32.16 100.895 31.584C100.895 30.8373 101.172 30.2347 101.727 29.776C102.292 29.3067 103.071 29.072 104.062 29.072ZM112.516 29.072C113.55 29.072 114.377 29.3387 114.996 29.872C115.625 30.3947 116.009 31.0987 116.148 31.984H114.42C114.345 31.504 114.137 31.12 113.796 30.832C113.465 30.5333 113.022 30.384 112.468 30.384C112.009 30.384 111.652 30.496 111.396 30.72C111.15 30.9333 111.028 31.2267 111.028 31.6C111.028 31.8773 111.118 32.1013 111.3 32.272C111.481 32.4427 111.705 32.576 111.972 32.672C112.249 32.768 112.638 32.8747 113.14 32.992C113.801 33.1413 114.334 33.296 114.74 33.456C115.156 33.616 115.508 33.872 115.796 34.224C116.094 34.5653 116.244 35.0347 116.244 35.632C116.244 36.368 115.961 36.9653 115.396 37.424C114.841 37.8827 114.089 38.112 113.14 38.112C112.041 38.112 111.15 37.856 110.468 37.344C109.796 36.832 109.39 36.1173 109.252 35.2H111.028C111.081 35.68 111.294 36.0693 111.668 36.368C112.041 36.6667 112.532 36.816 113.14 36.816C113.577 36.816 113.918 36.704 114.164 36.48C114.42 36.2453 114.548 35.952 114.548 35.6C114.548 35.2907 114.452 35.0453 114.26 34.864C114.068 34.6827 113.828 34.544 113.54 34.448C113.252 34.3413 112.857 34.2347 112.356 34.128C111.716 33.9787 111.193 33.8293 110.788 33.68C110.393 33.5307 110.052 33.2907 109.764 32.96C109.486 32.6187 109.348 32.16 109.348 31.584C109.348 30.8373 109.625 30.2347 110.18 29.776C110.745 29.3067 111.524 29.072 112.516 29.072ZM126.265 33.168C126.265 33.4667 126.243 33.728 126.201 33.952H119.417C119.449 34.8587 119.699 35.5307 120.169 35.968C120.638 36.4053 121.219 36.624 121.913 36.624C122.521 36.624 123.033 36.4693 123.449 36.16C123.875 35.8507 124.137 35.44 124.233 34.928H126.185C126.067 35.5467 125.822 36.096 125.449 36.576C125.075 37.056 124.59 37.4347 123.993 37.712C123.395 37.9787 122.729 38.112 121.993 38.112C121.139 38.112 120.382 37.9307 119.721 37.568C119.07 37.2053 118.558 36.6827 118.185 36C117.811 35.3173 117.625 34.512 117.625 33.584C117.625 32.6667 117.811 31.8667 118.185 31.184C118.558 30.5013 119.07 29.9787 119.721 29.616C120.382 29.2533 121.139 29.072 121.993 29.072C122.857 29.072 123.609 29.2533 124.249 29.616C124.899 29.968 125.395 30.4587 125.737 31.088C126.089 31.7067 126.265 32.4 126.265 33.168ZM124.425 33.12C124.446 32.544 124.345 32.064 124.121 31.68C123.907 31.2853 123.609 30.9973 123.225 30.816C122.851 30.624 122.441 30.528 121.993 30.528C121.278 30.528 120.681 30.7467 120.201 31.184C119.721 31.6213 119.459 32.2667 119.417 33.12H124.425ZM131.562 29.072C132.362 29.072 133.045 29.2693 133.61 29.664C134.175 30.0587 134.575 30.5813 134.81 31.232V29.184H136.634V38.096C136.634 38.9173 136.463 39.6427 136.122 40.272C135.791 40.912 135.311 41.4133 134.682 41.776C134.053 42.1387 133.306 42.32 132.442 42.32C131.205 42.32 130.202 42.0267 129.434 41.44C128.677 40.8533 128.202 40.0587 128.01 39.056H129.818C129.967 39.5787 130.255 39.984 130.682 40.272C131.109 40.5707 131.653 40.72 132.314 40.72C133.039 40.72 133.637 40.496 134.106 40.048C134.575 39.6 134.81 38.9493 134.81 38.096V35.952C134.575 36.6027 134.175 37.1253 133.61 37.52C133.045 37.9147 132.362 38.112 131.562 38.112C130.794 38.112 130.106 37.9307 129.498 37.568C128.901 37.2053 128.431 36.6827 128.09 36C127.749 35.3173 127.578 34.512 127.578 33.584C127.578 32.6667 127.749 31.8667 128.09 31.184C128.431 30.5013 128.901 29.9787 129.498 29.616C130.106 29.2533 130.794 29.072 131.562 29.072ZM132.122 30.672C131.311 30.672 130.661 30.9333 130.17 31.456C129.69 31.968 129.45 32.6773 129.45 33.584C129.45 34.4907 129.69 35.2053 130.17 35.728C130.661 36.24 131.311 36.496 132.122 36.496C132.634 36.496 133.093 36.3787 133.498 36.144C133.903 35.8987 134.223 35.5573 134.458 35.12C134.693 34.6827 134.81 34.1707 134.81 33.584C134.81 33.008 134.693 32.5013 134.458 32.064C134.223 31.616 133.903 31.2747 133.498 31.04C133.093 30.7947 132.634 30.672 132.122 30.672ZM147.015 33.168C147.015 33.4667 146.993 33.728 146.951 33.952H140.167C140.199 34.8587 140.449 35.5307 140.919 35.968C141.388 36.4053 141.969 36.624 142.663 36.624C143.271 36.624 143.783 36.4693 144.199 36.16C144.625 35.8507 144.887 35.44 144.983 34.928H146.935C146.817 35.5467 146.572 36.096 146.199 36.576C145.825 37.056 145.34 37.4347 144.743 37.712C144.145 37.9787 143.479 38.112 142.743 38.112C141.889 38.112 141.132 37.9307 140.471 37.568C139.82 37.2053 139.308 36.6827 138.935 36C138.561 35.3173 138.375 34.512 138.375 33.584C138.375 32.6667 138.561 31.8667 138.935 31.184C139.308 30.5013 139.82 29.9787 140.471 29.616C141.132 29.2533 141.889 29.072 142.743 29.072C143.607 29.072 144.359 29.2533 144.999 29.616C145.649 29.968 146.145 30.4587 146.487 31.088C146.839 31.7067 147.015 32.4 147.015 33.168ZM145.175 33.12C145.196 32.544 145.095 32.064 144.871 31.68C144.657 31.2853 144.359 30.9973 143.975 30.816C143.601 30.624 143.191 30.528 142.743 30.528C142.028 30.528 141.431 30.7467 140.951 31.184C140.471 31.6213 140.209 32.2667 140.167 33.12H145.175Z" fill="white"/>
<path d="M181.707 32.7071C182.098 32.3166 182.098 31.6834 181.707 31.2929L175.343 24.9289C174.953 24.5384 174.319 24.5384 173.929 24.9289C173.538 25.3195 173.538 25.9526 173.929 26.3431L179.586 32L173.929 37.6569C173.538 38.0474 173.538 38.6805 173.929 39.0711C174.319 39.4616 174.953 39.4616 175.343 39.0711L181.707 32.7071ZM161 33L181 33V31L161 31V33Z" fill="white"/>
<path d="M0 11V0H29V11H0Z" fill="#666DFF"/>
<path d="M0 27V19H8V27H0Z" fill="#666DFF"/>
<path d="M0 19V0H19V19H0Z" fill="#FFA155"/>
<path d="M8 11V0H19V11H8Z" fill="#FFD3AF"/>
<defs>
<linearGradient id="paint0_linear_1_230" x1="106.5" y1="0" x2="106.5" y2="64" gradientUnits="userSpaceOnUse">
<stop stop-color="#444CFC"/>
<stop offset="1" stop-color="#444CFC"/>
</linearGradient>
</defs>
</svg>
