<svg width="231" height="64" viewBox="0 0 231 64" fill="none" xmlns="http://www.w3.org/2000/svg">
<rect width="231" height="64" fill="url(#paint0_linear_1_1724)"/>
<path opacity="0.87" d="M38.976 38L36.416 33.552H35.024V38H33.2V26.88H37.04C37.8933 26.88 38.6133 27.0293 39.2 27.328C39.7973 27.6267 40.24 28.0267 40.528 28.528C40.8267 29.0293 40.976 29.5893 40.976 30.208C40.976 30.9333 40.7627 31.5947 40.336 32.192C39.92 32.7787 39.2747 33.1787 38.4 33.392L41.152 38H38.976ZM35.024 32.096H37.04C37.7227 32.096 38.2347 31.9253 38.576 31.584C38.928 31.2427 39.104 30.784 39.104 30.208C39.104 29.632 38.9333 29.184 38.592 28.864C38.2507 28.5333 37.7333 28.368 37.04 28.368H35.024V32.096ZM51.3894 33.376C51.3894 33.7067 51.368 34.0053 51.3254 34.272H44.5894C44.6427 34.976 44.904 35.5413 45.3734 35.968C45.8427 36.3947 46.4187 36.608 47.1014 36.608C48.0827 36.608 48.776 36.1973 49.1814 35.376H51.1494C50.8827 36.1867 50.3974 36.8533 49.6934 37.376C49 37.888 48.136 38.144 47.1014 38.144C46.2587 38.144 45.5014 37.9573 44.8294 37.584C44.168 37.2 43.6454 36.6667 43.2614 35.984C42.888 35.2907 42.7014 34.4907 42.7014 33.584C42.7014 32.6773 42.8827 31.8827 43.2454 31.2C43.6187 30.5067 44.136 29.9733 44.7974 29.6C45.4694 29.2267 46.2374 29.04 47.1014 29.04C47.9334 29.04 48.6747 29.2213 49.3254 29.584C49.976 29.9467 50.4827 30.4587 50.8454 31.12C51.208 31.7707 51.3894 32.5227 51.3894 33.376ZM49.4854 32.8C49.4747 32.128 49.2347 31.5893 48.7654 31.184C48.296 30.7787 47.7147 30.576 47.0214 30.576C46.392 30.576 45.8534 30.7787 45.4054 31.184C44.9574 31.5787 44.6907 32.1173 44.6054 32.8H49.4854ZM52.5764 33.552C52.5764 32.6667 52.7577 31.8827 53.1204 31.2C53.4937 30.5173 53.995 29.9893 54.6244 29.616C55.2644 29.232 55.9737 29.04 56.7524 29.04C57.435 29.04 58.0377 29.1787 58.5604 29.456C59.0937 29.7333 59.5044 30.0693 59.7924 30.464V29.184H61.6324V42.192H59.7924V36.72C59.5044 37.1147 59.0884 37.4507 58.5444 37.728C58.0004 38.0053 57.3817 38.144 56.6884 38.144C55.931 38.144 55.2377 37.952 54.6084 37.568C53.9897 37.1733 53.4937 36.6293 53.1204 35.936C52.7577 35.232 52.5764 34.4373 52.5764 33.552ZM59.7924 33.584C59.7924 32.976 59.6644 32.448 59.4084 32C59.163 31.552 58.8377 31.2107 58.4324 30.976C58.027 30.7413 57.5897 30.624 57.1204 30.624C56.651 30.624 56.2137 30.7413 55.8084 30.976C55.403 31.2 55.0724 31.536 54.8164 31.984C54.571 32.4213 54.4484 32.944 54.4484 33.552C54.4484 34.16 54.571 34.6933 54.8164 35.152C55.0724 35.6107 55.403 35.9627 55.8084 36.208C56.2244 36.4427 56.6617 36.56 57.1204 36.56C57.5897 36.56 58.027 36.4427 58.4324 36.208C58.8377 35.9733 59.163 35.632 59.4084 35.184C59.6644 34.7253 59.7924 34.192 59.7924 33.584ZM72.0121 29.184V38H70.1881V36.96C69.9001 37.3227 69.5215 37.6107 69.0521 37.824C68.5935 38.0267 68.1028 38.128 67.5801 38.128C66.8868 38.128 66.2628 37.984 65.7081 37.696C65.1641 37.408 64.7321 36.9813 64.4121 36.416C64.1028 35.8507 63.9481 35.168 63.9481 34.368V29.184H65.7561V34.096C65.7561 34.8853 65.9535 35.4933 66.3481 35.92C66.7428 36.336 67.2815 36.544 67.9641 36.544C68.6468 36.544 69.1855 36.336 69.5801 35.92C69.9855 35.4933 70.1881 34.8853 70.1881 34.096V29.184H72.0121ZM82.4988 33.376C82.4988 33.7067 82.4774 34.0053 82.4348 34.272H75.6988C75.7521 34.976 76.0134 35.5413 76.4828 35.968C76.9521 36.3947 77.5281 36.608 78.2108 36.608C79.1921 36.608 79.8854 36.1973 80.2908 35.376H82.2587C81.9921 36.1867 81.5068 36.8533 80.8028 37.376C80.1094 37.888 79.2454 38.144 78.2108 38.144C77.3681 38.144 76.6108 37.9573 75.9388 37.584C75.2774 37.2 74.7548 36.6667 74.3708 35.984C73.9974 35.2907 73.8108 34.4907 73.8108 33.584C73.8108 32.6773 73.9921 31.8827 74.3548 31.2C74.7281 30.5067 75.2454 29.9733 75.9068 29.6C76.5788 29.2267 77.3468 29.04 78.2108 29.04C79.0428 29.04 79.7841 29.2213 80.4348 29.584C81.0854 29.9467 81.5921 30.4587 81.9548 31.12C82.3174 31.7707 82.4988 32.5227 82.4988 33.376ZM80.5948 32.8C80.5841 32.128 80.3441 31.5893 79.8748 31.184C79.4054 30.7787 78.8241 30.576 78.1308 30.576C77.5014 30.576 76.9628 30.7787 76.5148 31.184C76.0668 31.5787 75.8001 32.1173 75.7148 32.8H80.5948ZM87.4938 38.144C86.8004 38.144 86.1764 38.0213 85.6218 37.776C85.0778 37.52 84.6458 37.1787 84.3258 36.752C84.0058 36.3147 83.8351 35.8293 83.8138 35.296H85.7018C85.7338 35.6693 85.9098 35.984 86.2298 36.24C86.5604 36.4853 86.9711 36.608 87.4618 36.608C87.9738 36.608 88.3684 36.512 88.6458 36.32C88.9338 36.1173 89.0778 35.8613 89.0778 35.552C89.0778 35.2213 88.9178 34.976 88.5978 34.816C88.2884 34.656 87.7924 34.48 87.1098 34.288C86.4484 34.1067 85.9098 33.9307 85.4938 33.76C85.0778 33.5893 84.7151 33.328 84.4058 32.976C84.1071 32.624 83.9578 32.16 83.9578 31.584C83.9578 31.1147 84.0964 30.688 84.3738 30.304C84.6511 29.9093 85.0458 29.6 85.5578 29.376C86.0804 29.152 86.6778 29.04 87.3498 29.04C88.3524 29.04 89.1578 29.296 89.7658 29.808C90.3844 30.3093 90.7151 30.9973 90.7578 31.872H88.9338C88.9018 31.4773 88.7418 31.1627 88.4538 30.928C88.1658 30.6933 87.7764 30.576 87.2858 30.576C86.8058 30.576 86.4378 30.6667 86.1818 30.848C85.9258 31.0293 85.7978 31.2693 85.7978 31.568C85.7978 31.8027 85.8831 32 86.0538 32.16C86.2244 32.32 86.4324 32.448 86.6778 32.544C86.9231 32.6293 87.2858 32.7413 87.7658 32.88C88.4058 33.0507 88.9284 33.2267 89.3338 33.408C89.7498 33.5787 90.1071 33.8347 90.4058 34.176C90.7044 34.5173 90.8591 34.9707 90.8698 35.536C90.8698 36.0373 90.7311 36.4853 90.4538 36.88C90.1764 37.2747 89.7818 37.584 89.2698 37.808C88.7684 38.032 88.1764 38.144 87.4938 38.144ZM94.9686 30.672V35.552C94.9686 35.8827 95.0433 36.1227 95.1926 36.272C95.3526 36.4107 95.6193 36.48 95.9926 36.48H97.1126V38H95.6726C94.8513 38 94.222 37.808 93.7846 37.424C93.3473 37.04 93.1286 36.416 93.1286 35.552V30.672H92.0886V29.184H93.1286V26.992H94.9686V29.184H97.1126V30.672H94.9686ZM109.654 35.728H104.998L104.198 38H102.294L106.278 26.864H108.39L112.374 38H110.454L109.654 35.728ZM109.142 34.24L107.334 29.072L105.51 34.24H109.142ZM126.871 40.016L124.919 37.904C124.439 38.0427 123.911 38.112 123.335 38.112C122.3 38.112 121.345 37.872 120.471 37.392C119.607 36.9013 118.919 36.224 118.407 35.36C117.905 34.4853 117.655 33.504 117.655 32.416C117.655 31.328 117.905 30.352 118.407 29.488C118.919 28.624 119.607 27.952 120.471 27.472C121.345 26.9813 122.3 26.736 123.335 26.736C124.38 26.736 125.335 26.9813 126.199 27.472C127.073 27.952 127.761 28.624 128.263 29.488C128.764 30.352 129.015 31.328 129.015 32.416C129.015 33.44 128.791 34.368 128.343 35.2C127.905 36.0213 127.297 36.6827 126.519 37.184L129.191 40.016H126.871ZM119.527 32.416C119.527 33.2373 119.687 33.9627 120.007 34.592C120.337 35.2107 120.791 35.6907 121.367 36.032C121.943 36.3627 122.599 36.528 123.335 36.528C124.071 36.528 124.727 36.3627 125.303 36.032C125.879 35.6907 126.327 35.2107 126.647 34.592C126.977 33.9627 127.143 33.2373 127.143 32.416C127.143 31.5947 126.977 30.8747 126.647 30.256C126.327 29.6373 125.879 29.1627 125.303 28.832C124.727 28.5013 124.071 28.336 123.335 28.336C122.599 28.336 121.943 28.5013 121.367 28.832C120.791 29.1627 120.337 29.6373 120.007 30.256C119.687 30.8747 119.527 31.5947 119.527 32.416ZM138.84 29.184V38H137.016V36.96C136.728 37.3227 136.35 37.6107 135.88 37.824C135.422 38.0267 134.931 38.128 134.408 38.128C133.715 38.128 133.091 37.984 132.536 37.696C131.992 37.408 131.56 36.9813 131.24 36.416C130.931 35.8507 130.776 35.168 130.776 34.368V29.184H132.584V34.096C132.584 34.8853 132.782 35.4933 133.176 35.92C133.571 36.336 134.11 36.544 134.792 36.544C135.475 36.544 136.014 36.336 136.408 35.92C136.814 35.4933 137.016 34.8853 137.016 34.096V29.184H138.84ZM145.071 38.144C144.239 38.144 143.487 37.9573 142.815 37.584C142.143 37.2 141.615 36.6667 141.231 35.984C140.847 35.2907 140.655 34.4907 140.655 33.584C140.655 32.688 140.852 31.8933 141.247 31.2C141.642 30.5067 142.18 29.9733 142.863 29.6C143.546 29.2267 144.308 29.04 145.151 29.04C145.994 29.04 146.756 29.2267 147.439 29.6C148.122 29.9733 148.66 30.5067 149.055 31.2C149.45 31.8933 149.647 32.688 149.647 33.584C149.647 34.48 149.444 35.2747 149.039 35.968C148.634 36.6613 148.079 37.2 147.375 37.584C146.682 37.9573 145.914 38.144 145.071 38.144ZM145.071 36.56C145.54 36.56 145.978 36.448 146.383 36.224C146.799 36 147.135 35.664 147.391 35.216C147.647 34.768 147.775 34.224 147.775 33.584C147.775 32.944 147.652 32.4053 147.407 31.968C147.162 31.52 146.836 31.184 146.431 30.96C146.026 30.736 145.588 30.624 145.119 30.624C144.65 30.624 144.212 30.736 143.807 30.96C143.412 31.184 143.098 31.52 142.863 31.968C142.628 32.4053 142.511 32.944 142.511 33.584C142.511 34.5333 142.751 35.2693 143.231 35.792C143.722 36.304 144.335 36.56 145.071 36.56ZM153.578 30.672V35.552C153.578 35.8827 153.653 36.1227 153.802 36.272C153.962 36.4107 154.229 36.48 154.602 36.48H155.722V38H154.282C153.461 38 152.831 37.808 152.394 37.424C151.957 37.04 151.738 36.416 151.738 35.552V30.672H150.698V29.184H151.738V26.992H153.578V29.184H155.722V30.672H153.578ZM165.483 33.376C165.483 33.7067 165.462 34.0053 165.419 34.272H158.683C158.736 34.976 158.998 35.5413 159.467 35.968C159.936 36.3947 160.512 36.608 161.195 36.608C162.176 36.608 162.87 36.1973 163.275 35.376H165.243C164.976 36.1867 164.491 36.8533 163.787 37.376C163.094 37.888 162.23 38.144 161.195 38.144C160.352 38.144 159.595 37.9573 158.923 37.584C158.262 37.2 157.739 36.6667 157.355 35.984C156.982 35.2907 156.795 34.4907 156.795 33.584C156.795 32.6773 156.976 31.8827 157.339 31.2C157.712 30.5067 158.23 29.9733 158.891 29.6C159.563 29.2267 160.331 29.04 161.195 29.04C162.027 29.04 162.768 29.2213 163.419 29.584C164.07 29.9467 164.576 30.4587 164.939 31.12C165.302 31.7707 165.483 32.5227 165.483 33.376ZM163.579 32.8C163.568 32.128 163.328 31.5893 162.859 31.184C162.39 30.7787 161.808 30.576 161.115 30.576C160.486 30.576 159.947 30.7787 159.499 31.184C159.051 31.5787 158.784 32.1173 158.699 32.8H163.579Z" fill="white"/>
<path d="M199.707 32.7071C200.098 32.3166 200.098 31.6834 199.707 31.2929L193.343 24.9289C192.953 24.5384 192.319 24.5384 191.929 24.9289C191.538 25.3195 191.538 25.9526 191.929 26.3431L197.586 32L191.929 37.6569C191.538 38.0474 191.538 38.6805 191.929 39.0711C192.319 39.4616 192.953 39.4616 193.343 39.0711L199.707 32.7071ZM179 33L199 33V31L179 31V33Z" fill="white"/>
<path d="M0 11V0H29V11H0Z" fill="#666DFF"/>
<path d="M0 27V19H8V27H0Z" fill="#666DFF"/>
<path d="M0 19V0H19V19H0Z" fill="#FFA155"/>
<path d="M8 11V0H19V11H8Z" fill="#FFD3AF"/>
<defs>
<linearGradient id="paint0_linear_1_1724" x1="115.5" y1="0" x2="115.5" y2="64" gradientUnits="userSpaceOnUse">
<stop stop-color="#444CFC"/>
<stop offset="1" stop-color="#444CFC"/>
</linearGradient>
</defs>
</svg>
