<svg width="122" height="28" viewBox="0 0 122 28" fill="none" xmlns="http://www.w3.org/2000/svg">
<g clip-path="url(#clip0_1_2261)">
<path d="M1.90595 5.13978V10.7404C1.90595 11.6591 1.90595 12.691 0 12.691V14.2042V14.2246V15.6999C1.90595 15.6999 1.90595 16.7312 1.90595 17.6505V23.2505C1.90595 27.5969 4.28734 27.9125 8.33667 27.9125V24.5321C6.43072 24.5321 5.71666 24.2515 5.71666 23.1671V17.6219C5.71666 16.3415 5.80457 15.0039 4.68683 14.1949C5.80457 13.3869 5.71666 12.0494 5.71666 10.7678V5.22378C5.71666 4.14053 6.43131 3.85878 8.33667 3.85878V0.477784C4.28734 0.477201 1.90595 0.792785 1.90595 5.13978ZM12.6216 4.95837C11.5804 5.83803 11.0601 7.10153 11.0601 8.7477V10.2265H8.88507V13.3164H11.0601V24.514H15.7864V13.3164H18.7144V10.2265H15.7864V9.17178C15.7864 8.63512 15.9443 8.22153 16.2601 7.93103C16.5759 7.64053 17.0274 7.49587 17.6129 7.49587C17.9005 7.49587 19.3699 7.50053 19.3699 7.50053V3.91478C19.3699 3.91478 16.7463 3.8862 16.3713 3.8862C15.2303 3.8862 13.6628 4.07753 12.6216 4.95837ZM21.4487 7.4877H26.1756V3.91478H21.4487V7.4877ZM21.4487 24.5146H26.1756V10.2265H21.4487V24.5146ZM37.8314 9.9622C36.9391 9.9622 36.1299 10.1629 35.4051 10.563C34.6803 10.9632 34.0715 11.5209 33.5787 12.2331L33.3975 10.2265H28.9774V24.514H33.6762V14.2415C33.9178 13.9773 34.2084 13.769 34.5475 13.6209C34.8866 13.4727 35.2747 13.3963 35.7119 13.3963C36.4092 13.3963 36.9367 13.566 37.2943 13.9044C37.652 14.2439 37.8314 14.8214 37.8314 15.6409V24.5152H42.5439V15.6544C42.5439 13.6734 42.1277 12.2296 41.2964 11.3225C40.4645 10.4154 39.3091 9.9622 37.8314 9.9622ZM56.7964 17.4697C55.9089 16.7878 54.5442 16.2739 52.704 15.9309C51.533 15.7209 50.7538 15.4817 50.3687 15.2174C49.9829 14.9544 49.7898 14.6318 49.7898 14.2538C49.7898 13.8571 49.9572 13.5334 50.2915 13.2773C50.6258 13.0218 51.0397 12.8934 51.5324 12.8934C52.2016 12.8934 52.6873 13.0393 52.9893 13.3298C53.2913 13.6203 53.4426 14.0473 53.4426 14.6102H58.0158L58.0439 14.5314C58.1001 13.1828 57.5332 12.0867 56.3431 11.2368C55.153 10.3869 53.5538 9.96162 51.5462 9.96162C49.6402 9.96162 48.1302 10.4003 47.0143 11.2764C45.8989 12.1526 45.3415 13.2189 45.3415 14.4772C45.3415 15.6654 45.7877 16.604 46.68 17.29C47.5722 17.9772 48.8969 18.4829 50.6539 18.809C51.7693 19.0289 52.5383 19.2774 52.9612 19.5545C53.3846 19.8322 53.5957 20.1478 53.5957 20.4978C53.5957 20.9294 53.433 21.2631 53.1077 21.4947C52.7823 21.728 52.3039 21.8465 51.6718 21.8465C50.9099 21.8465 50.3214 21.6954 49.9082 21.3967C49.4943 21.098 49.2784 20.6092 49.2599 19.9314H44.9935L44.966 20.0101C44.9104 21.2258 45.4791 22.3265 46.674 23.3118C47.8683 24.2982 49.4925 24.7905 51.5468 24.7905C53.5269 24.7905 55.1183 24.3746 56.3221 23.5422C57.5266 22.7104 58.1282 21.6528 58.1282 20.3665C58.1282 19.1176 57.6839 18.1516 56.7964 17.4697ZM73.6198 18.5063H73.5361L71.0548 10.2276H68.0844L65.6306 18.5734H65.5469L63.8879 10.2276H59.5378L63.0931 24.5152H67.0677L69.5346 16.9359H69.6183L72.0727 24.5152H76.0604L79.602 10.2276H75.2519L73.6198 18.5063ZM87.6032 9.96212C85.3629 9.95345 83.64 10.6383 82.4367 12.0161C81.2317 13.3934 80.63 15.1696 80.63 17.3437V17.8459C80.63 19.8351 81.2927 21.4906 82.6161 22.8113C83.9408 24.1325 85.7146 24.7923 87.9363 24.7923C89.1354 24.7923 90.2579 24.6406 91.3038 24.3367C92.3492 24.0334 93.2026 23.653 93.8617 23.1951L92.7469 20.4745C91.9288 20.8011 91.2524 21.0292 90.7178 21.1616C90.1825 21.2946 89.4691 21.3605 88.5768 21.3605C87.6935 21.3605 86.9878 21.1249 86.4579 20.6541C85.9275 20.1816 85.6123 19.5814 85.5094 18.851L85.5381 18.7711H94.1541V16.4325C94.1541 14.4434 93.5728 12.8678 92.4114 11.7052C91.2512 10.5432 89.6473 9.96212 87.6032 9.96212ZM89.5552 15.9845H85.4975L85.4556 15.9192C85.5304 15.1527 85.7373 14.5408 86.077 14.0829C86.4155 13.6261 86.925 13.3969 87.6038 13.3969C88.273 13.3969 88.7646 13.5905 89.0821 13.9779C89.3979 14.3652 89.5564 14.9199 89.5564 15.6415L89.5552 15.9845ZM103.418 9.96212C101.177 9.95345 99.4557 10.6383 98.2513 12.0161C97.048 13.3934 96.4452 15.1696 96.4452 17.3437V17.8459C96.4452 19.8351 97.1078 21.4906 98.4325 22.8113C99.7577 24.1325 101.53 24.7923 103.751 24.7923C104.951 24.7923 106.074 24.6406 107.12 24.3367C108.166 24.0334 109.018 23.653 109.678 23.1951L108.563 20.4745C107.745 20.8011 107.069 21.0292 106.534 21.1616C105.998 21.2946 105.285 21.3605 104.393 21.3605C103.51 21.3605 102.804 21.1249 102.274 20.6541C101.743 20.1816 101.428 19.5814 101.325 18.851L101.353 18.7711H109.97V16.4325C109.97 14.4434 109.389 12.8678 108.227 11.7052C107.065 10.5432 105.463 9.96212 103.418 9.96212ZM105.369 15.9845H101.313L101.271 15.9192C101.346 15.1527 101.552 14.5408 101.891 14.0829C102.229 13.6261 102.739 13.3969 103.418 13.3969C104.087 13.3969 104.58 13.5905 104.897 13.9779C105.214 14.3652 105.371 14.9199 105.371 15.6415V15.9851H105.369V15.9845ZM119.652 20.8087C119.067 20.8087 118.615 20.664 118.299 20.3735C117.984 20.083 117.825 19.6683 117.825 19.1316V13.3415H120.277V10.2504H117.825V3.89203H113.099V10.2504H110.923V13.3415H113.099V19.5557C113.099 21.2019 113.619 22.4654 114.66 23.3462C115.7 24.2276 117.267 24.4184 118.41 24.4184C118.786 24.4184 121.409 24.3898 121.409 24.3898V20.804C121.409 20.804 119.941 20.8087 119.652 20.8087Z" fill="white"/>
</g>
<defs>
<clipPath id="clip0_1_2261">
<rect width="122" height="28" fill="white"/>
</clipPath>
</defs>
</svg>
