<svg width="251" height="64" viewBox="0 0 251 64" fill="none" xmlns="http://www.w3.org/2000/svg">
<rect width="251" height="64" fill="url(#paint0_linear_1_841)"/>
<path opacity="0.87" d="M40.528 34.992C40.528 35.5467 40.3947 36.064 40.128 36.544C39.8613 37.0133 39.456 37.392 38.912 37.68C38.368 37.968 37.7013 38.112 36.912 38.112C36.144 38.112 35.456 37.9787 34.848 37.712C34.24 37.4347 33.7547 37.0507 33.392 36.56C33.0293 36.0693 32.8213 35.504 32.768 34.864H34.72C34.7733 35.3547 34.9813 35.776 35.344 36.128C35.7173 36.48 36.2133 36.656 36.832 36.656C37.3867 36.656 37.8133 36.5067 38.112 36.208C38.4213 35.9093 38.576 35.5253 38.576 35.056C38.576 34.6507 38.464 34.32 38.24 34.064C38.016 33.7973 37.7387 33.5893 37.408 33.44C37.0773 33.2907 36.624 33.12 36.048 32.928C35.344 32.704 34.768 32.48 34.32 32.256C33.8827 32.032 33.5093 31.7067 33.2 31.28C32.8907 30.8533 32.736 30.2933 32.736 29.6C32.736 28.992 32.8853 28.4587 33.184 28C33.4827 27.5413 33.9093 27.1893 34.464 26.944C35.0187 26.688 35.6587 26.56 36.384 26.56C37.536 26.56 38.448 26.8373 39.12 27.392C39.8027 27.9467 40.192 28.672 40.288 29.568H38.32C38.2453 29.1413 38.0427 28.7787 37.712 28.48C37.392 28.1707 36.9493 28.016 36.384 28.016C35.872 28.016 35.4613 28.1493 35.152 28.416C34.8427 28.672 34.688 29.0453 34.688 29.536C34.688 29.92 34.7947 30.24 35.008 30.496C35.2213 30.7413 35.488 30.9387 35.808 31.088C36.1387 31.2267 36.5867 31.392 37.152 31.584C37.8667 31.808 38.448 32.0373 38.896 32.272C39.3547 32.496 39.7387 32.8267 40.048 33.264C40.368 33.7013 40.528 34.2773 40.528 34.992ZM50.482 29.184V38H48.642V36.08C48.418 36.7307 48.0287 37.2373 47.474 37.6C46.9193 37.952 46.274 38.128 45.538 38.128C44.514 38.128 43.6927 37.7973 43.074 37.136C42.4553 36.4747 42.146 35.5307 42.146 34.304V29.184H43.97V34.112C43.97 34.912 44.1727 35.5307 44.578 35.968C44.9833 36.3947 45.538 36.608 46.242 36.608C46.9673 36.608 47.5487 36.3733 47.986 35.904C48.4233 35.4347 48.642 34.752 48.642 33.856V29.184H50.482ZM57.7225 29.072C58.4905 29.072 59.1732 29.2533 59.7705 29.616C60.3785 29.9787 60.8532 30.5013 61.1945 31.184C61.5358 31.8667 61.7065 32.6667 61.7065 33.584C61.7065 34.512 61.5358 35.3173 61.1945 36C60.8532 36.6827 60.3785 37.2053 59.7705 37.568C59.1732 37.9307 58.4905 38.112 57.7225 38.112C56.9225 38.112 56.2398 37.9147 55.6745 37.52C55.1092 37.1253 54.7145 36.6027 54.4905 35.952V38H52.6665V26.16H54.4905V31.232C54.7145 30.5813 55.1092 30.0587 55.6745 29.664C56.2398 29.2693 56.9225 29.072 57.7225 29.072ZM57.1625 30.672C56.6505 30.672 56.1918 30.7947 55.7865 31.04C55.3812 31.2747 55.0612 31.616 54.8265 32.064C54.5918 32.5013 54.4745 33.008 54.4745 33.584C54.4745 34.1707 54.5918 34.6827 54.8265 35.12C55.0612 35.5573 55.3812 35.8987 55.7865 36.144C56.1918 36.3787 56.6505 36.496 57.1625 36.496C57.9732 36.496 58.6238 36.24 59.1145 35.728C59.6052 35.2053 59.8505 34.4907 59.8505 33.584C59.8505 32.688 59.6052 31.9787 59.1145 31.456C58.6238 30.9333 57.9732 30.672 57.1625 30.672ZM74.4874 29.04C75.5327 29.04 76.3647 29.3707 76.9834 30.032C77.6127 30.6933 77.9274 31.6373 77.9274 32.864V38H76.1034V33.056C76.1034 32.288 75.9114 31.696 75.5274 31.28C75.1434 30.8533 74.6154 30.64 73.9434 30.64C73.2287 30.64 72.658 30.8693 72.2314 31.328C71.8154 31.776 71.6074 32.4373 71.6074 33.312V38H69.7834V33.056C69.7834 32.288 69.5914 31.696 69.2074 31.28C68.8234 30.8533 68.2954 30.64 67.6234 30.64C66.9087 30.64 66.338 30.8693 65.9114 31.328C65.4954 31.776 65.2874 32.4373 65.2874 33.312V38H63.4634V29.184H65.2874V31.024C65.5114 30.384 65.8847 29.8933 66.4074 29.552C66.93 29.2107 67.5434 29.04 68.2474 29.04C68.9834 29.04 69.618 29.2213 70.1514 29.584C70.6954 29.9467 71.09 30.4693 71.3354 31.152C71.5914 30.4907 72.002 29.9733 72.5674 29.6C73.1327 29.2267 73.7727 29.04 74.4874 29.04ZM79.8011 26.624C79.8011 26.3147 79.9078 26.0587 80.1211 25.856C80.3345 25.6533 80.6171 25.552 80.9691 25.552C81.3211 25.552 81.6038 25.6533 81.8171 25.856C82.0411 26.0587 82.1531 26.3147 82.1531 26.624C82.1531 26.9333 82.0411 27.184 81.8171 27.376C81.6038 27.568 81.3211 27.664 80.9691 27.664C80.6171 27.664 80.3345 27.568 80.1211 27.376C79.9078 27.184 79.8011 26.9333 79.8011 26.624ZM81.8811 29.184V38H80.0571V29.184H81.8811ZM88.5204 36.416V38H87.4004C86.4617 38 85.747 37.776 85.2564 37.328C84.7764 36.8693 84.5364 36.112 84.5364 35.056V30.736H83.2724V29.184H84.5364V26.992H86.3764V29.184H88.5044V30.736H86.3764V35.088C86.3764 35.5893 86.467 35.936 86.6484 36.128C86.8404 36.32 87.171 36.416 87.6404 36.416H88.5204ZM100.715 35.552H95.947L95.083 38H93.131L97.291 26.88H99.387L103.531 38H101.579L100.715 35.552ZM100.203 34.144L98.331 28.864L96.459 34.144H100.203ZM109.941 29.072C110.709 29.072 111.392 29.2533 111.989 29.616C112.597 29.9787 113.072 30.5013 113.413 31.184C113.755 31.8667 113.925 32.6667 113.925 33.584C113.925 34.512 113.755 35.3173 113.413 36C113.072 36.6827 112.597 37.2053 111.989 37.568C111.392 37.9307 110.709 38.112 109.941 38.112C109.141 38.112 108.459 37.9147 107.893 37.52C107.328 37.1253 106.933 36.6027 106.709 35.952V42.192H104.885V29.184H106.709V31.232C106.933 30.5813 107.328 30.0587 107.893 29.664C108.459 29.2693 109.141 29.072 109.941 29.072ZM109.381 30.672C108.869 30.672 108.411 30.7947 108.005 31.04C107.6 31.2747 107.28 31.616 107.045 32.064C106.811 32.5013 106.693 33.008 106.693 33.584C106.693 34.1707 106.811 34.6827 107.045 35.12C107.28 35.5573 107.6 35.8987 108.005 36.144C108.411 36.3787 108.869 36.496 109.381 36.496C110.192 36.496 110.843 36.24 111.333 35.728C111.824 35.2053 112.069 34.4907 112.069 33.584C112.069 32.688 111.824 31.9787 111.333 31.456C110.843 30.9333 110.192 30.672 109.381 30.672ZM120.738 29.072C121.506 29.072 122.189 29.2533 122.786 29.616C123.394 29.9787 123.869 30.5013 124.21 31.184C124.551 31.8667 124.722 32.6667 124.722 33.584C124.722 34.512 124.551 35.3173 124.21 36C123.869 36.6827 123.394 37.2053 122.786 37.568C122.189 37.9307 121.506 38.112 120.738 38.112C119.938 38.112 119.255 37.9147 118.69 37.52C118.125 37.1253 117.73 36.6027 117.506 35.952V42.192H115.682V29.184H117.506V31.232C117.73 30.5813 118.125 30.0587 118.69 29.664C119.255 29.2693 119.938 29.072 120.738 29.072ZM120.178 30.672C119.666 30.672 119.207 30.7947 118.802 31.04C118.397 31.2747 118.077 31.616 117.842 32.064C117.607 32.5013 117.49 33.008 117.49 33.584C117.49 34.1707 117.607 34.6827 117.842 35.12C118.077 35.5573 118.397 35.8987 118.802 36.144C119.207 36.3787 119.666 36.496 120.178 36.496C120.989 36.496 121.639 36.24 122.13 35.728C122.621 35.2053 122.866 34.4907 122.866 33.584C122.866 32.688 122.621 31.9787 122.13 31.456C121.639 30.9333 120.989 30.672 120.178 30.672ZM128.303 26.16V38H126.479V26.16H128.303ZM130.254 26.624C130.254 26.3147 130.361 26.0587 130.574 25.856C130.788 25.6533 131.07 25.552 131.422 25.552C131.774 25.552 132.057 25.6533 132.27 25.856C132.494 26.0587 132.606 26.3147 132.606 26.624C132.606 26.9333 132.494 27.184 132.27 27.376C132.057 27.568 131.774 27.664 131.422 27.664C131.07 27.664 130.788 27.568 130.574 27.376C130.361 27.184 130.254 26.9333 130.254 26.624ZM132.334 29.184V38H130.51V29.184H132.334ZM138.462 29.072C139.603 29.072 140.547 29.376 141.294 29.984C142.04 30.5813 142.504 31.3973 142.686 32.432H140.75C140.643 31.8773 140.382 31.4453 139.966 31.136C139.56 30.816 139.048 30.656 138.43 30.656C137.726 30.656 137.139 30.9067 136.67 31.408C136.2 31.8987 135.966 32.624 135.966 33.584C135.966 34.544 136.2 35.2747 136.67 35.776C137.139 36.2773 137.726 36.528 138.43 36.528C139.048 36.528 139.56 36.368 139.966 36.048C140.382 35.728 140.643 35.2907 140.75 34.736H142.686C142.504 35.7707 142.04 36.592 141.294 37.2C140.547 37.808 139.603 38.112 138.462 38.112C137.608 38.112 136.851 37.9307 136.19 37.568C135.539 37.2053 135.027 36.6827 134.654 36C134.28 35.3173 134.094 34.512 134.094 33.584C134.094 32.6667 134.28 31.8667 134.654 31.184C135.027 30.5013 135.539 29.9787 136.19 29.616C136.851 29.2533 137.608 29.072 138.462 29.072ZM147.984 29.072C148.784 29.072 149.466 29.2693 150.032 29.664C150.597 30.0587 150.997 30.5813 151.232 31.232V29.184H153.056V38H151.232V35.952C150.997 36.6027 150.597 37.1253 150.032 37.52C149.466 37.9147 148.784 38.112 147.984 38.112C147.216 38.112 146.528 37.9307 145.92 37.568C145.322 37.2053 144.853 36.6827 144.512 36C144.17 35.3173 144 34.512 144 33.584C144 32.6667 144.17 31.8667 144.512 31.184C144.853 30.5013 145.322 29.9787 145.92 29.616C146.528 29.2533 147.216 29.072 147.984 29.072ZM148.544 30.672C147.733 30.672 147.082 30.9333 146.592 31.456C146.112 31.968 145.872 32.6773 145.872 33.584C145.872 34.4907 146.112 35.2053 146.592 35.728C147.082 36.24 147.733 36.496 148.544 36.496C149.056 36.496 149.514 36.3787 149.92 36.144C150.325 35.8987 150.645 35.5573 150.88 35.12C151.114 34.6827 151.232 34.1707 151.232 33.584C151.232 33.008 151.114 32.5013 150.88 32.064C150.645 31.616 150.325 31.2747 149.92 31.04C149.514 30.7947 149.056 30.672 148.544 30.672ZM159.677 36.416V38H158.557C157.618 38 156.903 37.776 156.413 37.328C155.933 36.8693 155.693 36.112 155.693 35.056V30.736H154.429V29.184H155.693V26.992H157.533V29.184H159.661V30.736H157.533V35.088C157.533 35.5893 157.623 35.936 157.805 36.128C157.997 36.32 158.327 36.416 158.797 36.416H159.677ZM161.129 26.624C161.129 26.3147 161.236 26.0587 161.449 25.856C161.663 25.6533 161.945 25.552 162.297 25.552C162.649 25.552 162.932 25.6533 163.145 25.856C163.369 26.0587 163.481 26.3147 163.481 26.624C163.481 26.9333 163.369 27.184 163.145 27.376C162.932 27.568 162.649 27.664 162.297 27.664C161.945 27.664 161.663 27.568 161.449 27.376C161.236 27.184 161.129 26.9333 161.129 26.624ZM163.209 29.184V38H161.385V29.184H163.209ZM169.449 29.072C170.302 29.072 171.07 29.2533 171.753 29.616C172.435 29.9787 172.969 30.5013 173.352 31.184C173.737 31.8667 173.929 32.6667 173.929 33.584C173.929 34.512 173.737 35.3173 173.352 36C172.969 36.6827 172.435 37.2053 171.753 37.568C171.07 37.9307 170.302 38.112 169.449 38.112C168.595 38.112 167.827 37.9307 167.145 37.568C166.473 37.2053 165.939 36.6827 165.545 36C165.161 35.3067 164.969 34.5013 164.969 33.584C164.969 32.6667 165.161 31.8667 165.545 31.184C165.939 30.5013 166.473 29.9787 167.145 29.616C167.827 29.2533 168.595 29.072 169.449 29.072ZM169.449 30.656C168.979 30.656 168.547 30.7627 168.153 30.976C167.758 31.1893 167.438 31.52 167.193 31.968C166.958 32.4053 166.841 32.944 166.841 33.584C166.841 34.2347 166.958 34.7787 167.193 35.216C167.438 35.6533 167.758 35.9787 168.153 36.192C168.547 36.4053 168.979 36.512 169.449 36.512C169.918 36.512 170.35 36.4053 170.745 36.192C171.139 35.9787 171.454 35.6533 171.689 35.216C171.934 34.7787 172.057 34.2347 172.057 33.584C172.057 32.944 171.934 32.4053 171.689 31.968C171.454 31.52 171.139 31.1893 170.745 30.976C170.35 30.7627 169.918 30.656 169.449 30.656ZM180.61 29.04C181.634 29.04 182.455 29.3707 183.074 30.032C183.693 30.6933 184.002 31.6373 184.002 32.864V38H182.178V33.056C182.178 32.2667 181.975 31.6587 181.57 31.232C181.165 30.7947 180.61 30.576 179.906 30.576C179.181 30.576 178.599 30.8107 178.162 31.28C177.725 31.7387 177.506 32.416 177.506 33.312V38H175.682V29.184H177.506V31.12C177.741 30.4587 178.135 29.9467 178.69 29.584C179.245 29.2213 179.885 29.04 180.61 29.04Z" fill="white"/>
<path d="M219.707 32.7071C220.098 32.3166 220.098 31.6834 219.707 31.2929L213.343 24.9289C212.953 24.5384 212.319 24.5384 211.929 24.9289C211.538 25.3195 211.538 25.9526 211.929 26.3431L217.586 32L211.929 37.6569C211.538 38.0474 211.538 38.6805 211.929 39.0711C212.319 39.4616 212.953 39.4616 213.343 39.0711L219.707 32.7071ZM199 33L219 33V31L199 31V33Z" fill="white"/>
<path d="M0 11V0H29V11H0Z" fill="#666DFF"/>
<path d="M0 27V19H8V27H0Z" fill="#666DFF"/>
<path d="M0 19V0H19V19H0Z" fill="#FFA155"/>
<path d="M8 11V0H19V11H8Z" fill="#FFD3AF"/>
<defs>
<linearGradient id="paint0_linear_1_841" x1="125.5" y1="0" x2="125.5" y2="64" gradientUnits="userSpaceOnUse">
<stop stop-color="#444CFC"/>
<stop offset="1" stop-color="#444CFC"/>
</linearGradient>
</defs>
</svg>
